# MagicaVoxel @ Ephtracy

# material
mtllib arrow.mtl
usemtl palette

# normals
vn -1 0 0
vn 1 0 0
vn 0 0 1
vn 0 0 -1
vn 0 -1 0
vn 0 1 0

# texcoords
vt 0.748047 0.5
vt 0.955078 0.5
vt 0.966797 0.5

# verts
v -4.5 1 0.5
v -4.5 1 -0.5
v -4.5 2 0.5
v -4.5 2 -0.5
v -3.5 0 0.5
v -3.5 0 -0.5
v -3.5 1 1.5
v -3.5 1 0.5
v -3.5 1 -0.5
v -3.5 1 -1.5
v -3.5 2 1.5
v -3.5 2 0.5
v -3.5 2 -0.5
v -3.5 2 -1.5
v -3.5 3 0.5
v -3.5 3 -0.5
v 2.5 0 0.5
v 2.5 0 -0.5
v 2.5 1 1.5
v 2.5 1 0.5
v 2.5 1 -0.5
v 2.5 1 -1.5
v 2.5 2 1.5
v 2.5 2 0.5
v 2.5 2 -0.5
v 2.5 2 -1.5
v 2.5 3 0.5
v 2.5 3 -0.5
v -2.5 0 0.5
v -2.5 0 -0.5
v -2.5 1 1.5
v -2.5 1 0.5
v -2.5 1 -0.5
v -2.5 1 -1.5
v -2.5 2 1.5
v -2.5 2 0.5
v -2.5 2 -0.5
v -2.5 2 -1.5
v -2.5 3 0.5
v -2.5 3 -0.5
v 3.5 1 0.5
v 3.5 1 -0.5
v 3.5 2 0.5
v 3.5 2 -0.5
v 4.5 0 0.5
v 4.5 0 -0.5
v 4.5 1 1.5
v 4.5 1 0.5
v 4.5 1 -0.5
v 4.5 1 -1.5
v 4.5 2 1.5
v 4.5 2 0.5
v 4.5 2 -0.5
v 4.5 2 -1.5
v 4.5 3 0.5
v 4.5 3 -0.5
v -3.5 1 1.5
v -3.5 2 1.5
v -2.5 1 1.5
v -2.5 2 1.5
v 2.5 1 1.5
v 2.5 2 1.5
v 4.5 1 1.5
v 4.5 2 1.5
v -4.5 1 0.5
v -4.5 2 0.5
v -3.5 0 0.5
v -3.5 1 0.5
v -3.5 2 0.5
v -3.5 3 0.5
v -2.5 0 0.5
v -2.5 1 0.5
v -2.5 2 0.5
v -2.5 3 0.5
v 2.5 0 0.5
v 2.5 1 0.5
v 2.5 2 0.5
v 2.5 3 0.5
v 4.5 0 0.5
v 4.5 1 0.5
v 4.5 2 0.5
v 4.5 3 0.5
v 3.5 1 -0.5
v 3.5 2 -0.5
v 4.5 1 -0.5
v 4.5 2 -0.5
v 3.5 1 0.5
v 3.5 2 0.5
v 4.5 1 0.5
v 4.5 2 0.5
v -4.5 1 -0.5
v -4.5 2 -0.5
v -3.5 0 -0.5
v -3.5 1 -0.5
v -3.5 2 -0.5
v -3.5 3 -0.5
v -2.5 0 -0.5
v -2.5 1 -0.5
v -2.5 2 -0.5
v -2.5 3 -0.5
v 2.5 0 -0.5
v 2.5 1 -0.5
v 2.5 2 -0.5
v 2.5 3 -0.5
v 4.5 0 -0.5
v 4.5 1 -0.5
v 4.5 2 -0.5
v 4.5 3 -0.5
v -3.5 1 -1.5
v -3.5 2 -1.5
v -2.5 1 -1.5
v -2.5 2 -1.5
v 2.5 1 -1.5
v 2.5 2 -1.5
v 4.5 1 -1.5
v 4.5 2 -1.5
v -3.5 0 0.5
v -2.5 0 0.5
v 2.5 0 0.5
v 4.5 0 0.5
v -3.5 0 -0.5
v -2.5 0 -0.5
v 2.5 0 -0.5
v 4.5 0 -0.5
v -3.5 1 1.5
v -2.5 1 1.5
v 2.5 1 1.5
v 4.5 1 1.5
v -4.5 1 0.5
v -3.5 1 0.5
v -2.5 1 0.5
v 2.5 1 0.5
v 4.5 1 0.5
v -4.5 1 -0.5
v -3.5 1 -0.5
v -2.5 1 -0.5
v 2.5 1 -0.5
v 4.5 1 -0.5
v -3.5 1 -1.5
v -2.5 1 -1.5
v 2.5 1 -1.5
v 4.5 1 -1.5
v 3.5 2 0.5
v 4.5 2 0.5
v 3.5 2 -0.5
v 4.5 2 -0.5
v 3.5 1 0.5
v 4.5 1 0.5
v 3.5 1 -0.5
v 4.5 1 -0.5
v -3.5 2 1.5
v -2.5 2 1.5
v 2.5 2 1.5
v 4.5 2 1.5
v -4.5 2 0.5
v -3.5 2 0.5
v -2.5 2 0.5
v 2.5 2 0.5
v 4.5 2 0.5
v -4.5 2 -0.5
v -3.5 2 -0.5
v -2.5 2 -0.5
v 2.5 2 -0.5
v 4.5 2 -0.5
v -3.5 2 -1.5
v -2.5 2 -1.5
v 2.5 2 -1.5
v 4.5 2 -1.5
v -3.5 3 0.5
v -2.5 3 0.5
v 2.5 3 0.5
v 4.5 3 0.5
v -3.5 3 -0.5
v -2.5 3 -0.5
v 2.5 3 -0.5
v 4.5 3 -0.5

# faces
f 3/2/1 2/2/1 1/2/1
f 4/2/1 2/2/1 3/2/1
f 8/2/1 6/2/1 5/2/1
f 9/2/1 6/2/1 8/2/1
f 11/2/1 8/2/1 7/2/1
f 12/2/1 8/2/1 11/2/1
f 13/2/1 10/2/1 9/2/1
f 14/2/1 10/2/1 13/2/1
f 15/2/1 13/2/1 12/2/1
f 16/2/1 13/2/1 15/2/1
f 20/3/1 18/3/1 17/3/1
f 21/3/1 18/3/1 20/3/1
f 23/3/1 20/3/1 19/3/1
f 24/3/1 20/3/1 23/3/1
f 25/3/1 22/3/1 21/3/1
f 26/3/1 22/3/1 25/3/1
f 27/3/1 25/3/1 24/3/1
f 28/3/1 25/3/1 27/3/1
f 29/2/2 30/2/2 32/2/2
f 32/2/2 30/2/2 33/2/2
f 31/2/2 32/2/2 35/2/2
f 35/2/2 32/2/2 36/2/2
f 33/2/2 34/2/2 37/2/2
f 37/2/2 34/2/2 38/2/2
f 36/2/2 37/2/2 39/2/2
f 39/2/2 37/2/2 40/2/2
f 41/1/2 42/1/2 43/1/2
f 43/1/2 42/1/2 44/1/2
f 45/3/2 46/3/2 48/3/2
f 48/3/2 46/3/2 49/3/2
f 47/3/2 48/3/2 51/3/2
f 51/3/2 48/3/2 52/3/2
f 49/3/2 50/3/2 53/3/2
f 53/3/2 50/3/2 54/3/2
f 52/3/2 53/3/2 55/3/2
f 55/3/2 53/3/2 56/3/2
f 59/2/3 58/2/3 57/2/3
f 60/2/3 58/2/3 59/2/3
f 63/3/3 62/3/3 61/3/3
f 64/3/3 62/3/3 63/3/3
f 68/2/3 66/2/3 65/2/3
f 69/2/3 66/2/3 68/2/3
f 71/2/3 68/2/3 67/2/3
f 72/2/3 68/2/3 71/2/3
f 73/2/3 70/2/3 69/2/3
f 74/2/3 70/2/3 73/2/3
f 76/1/3 73/1/3 72/1/3
f 77/1/3 73/1/3 76/1/3
f 79/3/3 76/3/3 75/3/3
f 80/3/3 76/3/3 79/3/3
f 81/3/3 78/3/3 77/3/3
f 82/3/3 78/3/3 81/3/3
f 85/3/3 84/3/3 83/3/3
f 86/3/3 84/3/3 85/3/3
f 87/3/4 88/3/4 89/3/4
f 89/3/4 88/3/4 90/3/4
f 91/2/4 92/2/4 94/2/4
f 94/2/4 92/2/4 95/2/4
f 93/2/4 94/2/4 97/2/4
f 97/2/4 94/2/4 98/2/4
f 95/2/4 96/2/4 99/2/4
f 99/2/4 96/2/4 100/2/4
f 98/1/4 99/1/4 102/1/4
f 102/1/4 99/1/4 103/1/4
f 101/3/4 102/3/4 105/3/4
f 105/3/4 102/3/4 106/3/4
f 103/3/4 104/3/4 107/3/4
f 107/3/4 104/3/4 108/3/4
f 109/2/4 110/2/4 111/2/4
f 111/2/4 110/2/4 112/2/4
f 113/3/4 114/3/4 115/3/4
f 115/3/4 114/3/4 116/3/4
f 121/2/5 118/2/5 117/2/5
f 122/2/5 118/2/5 121/2/5
f 123/3/5 120/3/5 119/3/5
f 124/3/5 120/3/5 123/3/5
f 130/2/5 126/2/5 125/2/5
f 131/2/5 126/2/5 130/2/5
f 132/3/5 128/3/5 127/3/5
f 133/3/5 128/3/5 132/3/5
f 134/2/5 130/2/5 129/2/5
f 135/2/5 130/2/5 134/2/5
f 136/1/5 132/1/5 131/1/5
f 137/1/5 132/1/5 136/1/5
f 139/2/5 136/2/5 135/2/5
f 140/2/5 136/2/5 139/2/5
f 141/3/5 138/3/5 137/3/5
f 142/3/5 138/3/5 141/3/5
f 145/3/5 144/3/5 143/3/5
f 146/3/5 144/3/5 145/3/5
f 147/3/6 148/3/6 149/3/6
f 149/3/6 148/3/6 150/3/6
f 151/2/6 152/2/6 156/2/6
f 156/2/6 152/2/6 157/2/6
f 153/3/6 154/3/6 158/3/6
f 158/3/6 154/3/6 159/3/6
f 155/2/6 156/2/6 160/2/6
f 160/2/6 156/2/6 161/2/6
f 157/1/6 158/1/6 162/1/6
f 162/1/6 158/1/6 163/1/6
f 161/2/6 162/2/6 165/2/6
f 165/2/6 162/2/6 166/2/6
f 163/3/6 164/3/6 167/3/6
f 167/3/6 164/3/6 168/3/6
f 169/2/6 170/2/6 173/2/6
f 173/2/6 170/2/6 174/2/6
f 171/3/6 172/3/6 175/3/6
f 175/3/6 172/3/6 176/3/6
