# MagicaVoxel @ Ephtracy

# material
mtllib char_foot.mtl
usemtl palette

# normals
vn -1 0 0
vn 1 0 0
vn 0 0 1
vn 0 0 -1
vn 0 -1 0
vn 0 1 0

# texcoords
vt 0.736328 0.5
vt 0.744141 0.5

# verts
v -2.5 0 3
v -2.5 0 -4
v -2.5 2 3
v -2.5 2 2
v -2.5 2 -3
v -2.5 2 -4
v -2.5 3 2
v -2.5 3 -3
v -1.5 0 4
v -1.5 0 3
v -1.5 2 4
v -1.5 2 3
v -1.5 2 2
v -1.5 2 -3
v -1.5 2 -4
v -1.5 3 3
v -1.5 3 2
v -1.5 3 -3
v -1.5 3 -4
v 1.5 0 4
v 1.5 0 3
v 1.5 2 4
v 1.5 2 3
v 1.5 2 2
v 1.5 2 -3
v 1.5 2 -4
v 1.5 3 3
v 1.5 3 2
v 1.5 3 -3
v 1.5 3 -4
v 2.5 0 3
v 2.5 0 -4
v 2.5 2 3
v 2.5 2 2
v 2.5 2 -3
v 2.5 2 -4
v 2.5 3 2
v 2.5 3 -3
v -1.5 0 4
v -1.5 2 4
v 1.5 0 4
v 1.5 2 4
v -2.5 0 3
v -2.5 2 3
v -1.5 0 3
v -1.5 2 3
v -1.5 3 3
v 1.5 0 3
v 1.5 2 3
v 1.5 3 3
v 2.5 0 3
v 2.5 2 3
v -2.5 2 2
v -2.5 3 2
v -1.5 2 2
v -1.5 3 2
v 1.5 2 2
v 1.5 3 2
v 2.5 2 2
v 2.5 3 2
v -2.5 2 -3
v -2.5 3 -3
v -1.5 2 -3
v -1.5 3 -3
v 1.5 2 -3
v 1.5 3 -3
v 2.5 2 -3
v 2.5 3 -3
v -2.5 0 -4
v -2.5 2 -4
v -1.5 2 -4
v -1.5 3 -4
v 1.5 2 -4
v 1.5 3 -4
v 2.5 0 -4
v 2.5 2 -4
v -1.5 0 4
v 1.5 0 4
v -2.5 0 3
v -1.5 0 3
v 1.5 0 3
v 2.5 0 3
v -2.5 0 -4
v 2.5 0 -4
v -1.5 2 4
v 1.5 2 4
v -2.5 2 3
v -1.5 2 3
v 1.5 2 3
v 2.5 2 3
v -2.5 2 2
v -1.5 2 2
v 1.5 2 2
v 2.5 2 2
v -2.5 2 -3
v -1.5 2 -3
v 1.5 2 -3
v 2.5 2 -3
v -2.5 2 -4
v -1.5 2 -4
v 1.5 2 -4
v 2.5 2 -4
v -1.5 3 3
v 1.5 3 3
v -2.5 3 2
v -1.5 3 2
v 1.5 3 2
v 2.5 3 2
v -2.5 3 -3
v -1.5 3 -3
v 1.5 3 -3
v 2.5 3 -3
v -1.5 3 -4
v 1.5 3 -4

# faces
f 3/2/1 2/2/1 1/2/1
f 4/2/1 2/2/1 3/2/1
f 5/2/1 2/2/1 4/2/1
f 6/2/1 2/2/1 5/2/1
f 7/1/1 5/1/1 4/1/1
f 8/1/1 5/1/1 7/1/1
f 11/2/1 10/2/1 9/2/1
f 12/2/1 10/2/1 11/2/1
f 16/1/1 13/1/1 12/1/1
f 17/1/1 13/1/1 16/1/1
f 18/1/1 15/1/1 14/1/1
f 19/1/1 15/1/1 18/1/1
f 20/2/2 21/2/2 22/2/2
f 22/2/2 21/2/2 23/2/2
f 23/1/2 24/1/2 27/1/2
f 27/1/2 24/1/2 28/1/2
f 25/1/2 26/1/2 29/1/2
f 29/1/2 26/1/2 30/1/2
f 31/2/2 32/2/2 33/2/2
f 33/2/2 32/2/2 34/2/2
f 34/2/2 32/2/2 35/2/2
f 35/2/2 32/2/2 36/2/2
f 34/1/2 35/1/2 37/1/2
f 37/1/2 35/1/2 38/1/2
f 41/2/3 40/2/3 39/2/3
f 42/2/3 40/2/3 41/2/3
f 45/2/3 44/2/3 43/2/3
f 46/2/3 44/2/3 45/2/3
f 49/1/3 47/1/3 46/1/3
f 50/1/3 47/1/3 49/1/3
f 51/2/3 49/2/3 48/2/3
f 52/2/3 49/2/3 51/2/3
f 55/1/3 54/1/3 53/1/3
f 56/1/3 54/1/3 55/1/3
f 59/1/3 58/1/3 57/1/3
f 60/1/3 58/1/3 59/1/3
f 61/1/4 62/1/4 63/1/4
f 63/1/4 62/1/4 64/1/4
f 65/1/4 66/1/4 67/1/4
f 67/1/4 66/1/4 68/1/4
f 69/2/4 70/2/4 71/2/4
f 69/2/4 71/2/4 73/2/4
f 71/1/4 72/1/4 73/1/4
f 73/1/4 72/1/4 74/1/4
f 69/2/4 73/2/4 75/2/4
f 75/2/4 73/2/4 76/2/4
f 80/2/5 78/2/5 77/2/5
f 81/2/5 78/2/5 80/2/5
f 83/2/5 80/2/5 79/2/5
f 83/2/5 82/2/5 81/2/5
f 83/2/5 81/2/5 80/2/5
f 84/2/5 82/2/5 83/2/5
f 85/2/6 86/2/6 88/2/6
f 88/2/6 86/2/6 89/2/6
f 87/2/6 88/2/6 91/2/6
f 91/2/6 88/2/6 92/2/6
f 89/2/6 90/2/6 93/2/6
f 93/2/6 90/2/6 94/2/6
f 95/2/6 96/2/6 99/2/6
f 99/2/6 96/2/6 100/2/6
f 97/2/6 98/2/6 101/2/6
f 101/2/6 98/2/6 102/2/6
f 103/1/6 104/1/6 106/1/6
f 106/1/6 104/1/6 107/1/6
f 105/1/6 106/1/6 109/1/6
f 107/1/6 108/1/6 109/1/6
f 106/1/6 107/1/6 109/1/6
f 109/1/6 108/1/6 110/1/6
f 110/1/6 108/1/6 111/1/6
f 111/1/6 108/1/6 112/1/6
f 110/1/6 111/1/6 113/1/6
f 113/1/6 111/1/6 114/1/6
